<svg width="187" height="42" viewBox="0 0 187 42" fill="none" xmlns="http://www.w3.org/2000/svg"><path d="M76.2 14V16L69.46 25.16H76.26V28H65.44V26L72.18 16.84H65.82V14H76.2ZM80.7155 18.18V28H77.8955V18.18H80.7155ZM79.2955 16.84C78.8155 16.84 78.4088 16.6733 78.0755 16.34C77.7421 16.0067 77.5755 15.6067 77.5755 15.14C77.5755 14.6733 77.7421 14.2733 78.0755 13.94C78.4088 13.5933 78.8155 13.42 79.2955 13.42C79.7755 13.42 80.1821 13.5933 80.5155 13.94C80.8488 14.2733 81.0155 14.6733 81.0155 15.14C81.0155 15.6067 80.8488 16.0067 80.5155 16.34C80.1821 16.6733 79.7755 16.84 79.2955 16.84ZM87.7183 32.04C86.9849 32.04 86.2449 31.9333 85.4983 31.72C84.7516 31.5067 84.0983 31.1267 83.5383 30.58C82.9783 30.0467 82.6716 29.3133 82.6183 28.38H85.4183C85.4583 28.66 85.5783 28.9 85.7783 29.1C85.9783 29.3 86.2383 29.4467 86.5583 29.54C86.8783 29.6467 87.2383 29.7 87.6383 29.7C88.0383 29.7 88.4183 29.6133 88.7783 29.44C89.1516 29.28 89.4449 29.0467 89.6583 28.74C89.8716 28.4333 89.9783 28.0867 89.9783 27.7V18.18H92.7983V27.58C92.7983 28.4867 92.5783 29.2733 92.1383 29.94C91.6983 30.6067 91.0916 31.12 90.3183 31.48C89.5449 31.8533 88.6783 32.04 87.7183 32.04ZM86.8783 27.8C86.0516 27.8 85.2849 27.58 84.5783 27.14C83.8716 26.7 83.3183 26.1067 82.9183 25.36C82.5183 24.6 82.3183 23.7733 82.3183 22.88C82.3183 22 82.5183 21.1867 82.9183 20.44C83.3183 19.68 83.8716 19.08 84.5783 18.64C85.2849 18.2 86.0516 17.98 86.8783 17.98C87.7183 17.98 88.4383 18.18 89.0383 18.58C89.6383 18.9667 90.0916 19.5333 90.3983 20.28C90.7183 21.0133 90.8783 21.88 90.8783 22.88C90.8783 23.8933 90.7183 24.7733 90.3983 25.52C90.0916 26.2533 89.6383 26.82 89.0383 27.22C88.4383 27.6067 87.7183 27.8 86.8783 27.8ZM87.5183 25.26C87.9849 25.26 88.4049 25.1533 88.7783 24.94C89.1516 24.7267 89.4449 24.44 89.6583 24.08C89.8716 23.72 89.9783 23.32 89.9783 22.88C89.9783 22.44 89.8716 22.0467 89.6583 21.7C89.4449 21.34 89.1516 21.06 88.7783 20.86C88.4049 20.6467 87.9849 20.54 87.5183 20.54C87.0649 20.54 86.6516 20.6467 86.2783 20.86C85.9183 21.0733 85.6249 21.36 85.3983 21.72C85.1849 22.0667 85.0783 22.4533 85.0783 22.88C85.0783 23.32 85.1849 23.72 85.3983 24.08C85.6249 24.44 85.9183 24.7267 86.2783 24.94C86.6516 25.1533 87.0649 25.26 87.5183 25.26ZM99.7886 32.04C99.0553 32.04 98.3153 31.9333 97.5686 31.72C96.8219 31.5067 96.1686 31.1267 95.6086 30.58C95.0486 30.0467 94.7419 29.3133 94.6886 28.38H97.4886C97.5286 28.66 97.6486 28.9 97.8486 29.1C98.0486 29.3 98.3086 29.4467 98.6286 29.54C98.9486 29.6467 99.3086 29.7 99.7086 29.7C100.109 29.7 100.489 29.6133 100.849 29.44C101.222 29.28 101.515 29.0467 101.729 28.74C101.942 28.4333 102.049 28.0867 102.049 27.7V18.18H104.869V27.58C104.869 28.4867 104.649 29.2733 104.209 29.94C103.769 30.6067 103.162 31.12 102.389 31.48C101.615 31.8533 100.749 32.04 99.7886 32.04ZM98.9486 27.8C98.1219 27.8 97.3553 27.58 96.6486 27.14C95.9419 26.7 95.3886 26.1067 94.9886 25.36C94.5886 24.6 94.3886 23.7733 94.3886 22.88C94.3886 22 94.5886 21.1867 94.9886 20.44C95.3886 19.68 95.9419 19.08 96.6486 18.64C97.3553 18.2 98.1219 17.98 98.9486 17.98C99.7886 17.98 100.509 18.18 101.109 18.58C101.709 18.9667 102.162 19.5333 102.469 20.28C102.789 21.0133 102.949 21.88 102.949 22.88C102.949 23.8933 102.789 24.7733 102.469 25.52C102.162 26.2533 101.709 26.82 101.109 27.22C100.509 27.6067 99.7886 27.8 98.9486 27.8ZM99.5886 25.26C100.055 25.26 100.475 25.1533 100.849 24.94C101.222 24.7267 101.515 24.44 101.729 24.08C101.942 23.72 102.049 23.32 102.049 22.88C102.049 22.44 101.942 22.0467 101.729 21.7C101.515 21.34 101.222 21.06 100.849 20.86C100.475 20.6467 100.055 20.54 99.5886 20.54C99.1353 20.54 98.7219 20.6467 98.3486 20.86C97.9886 21.0733 97.6953 21.36 97.4686 21.72C97.2553 22.0667 97.1486 22.4533 97.1486 22.88C97.1486 23.32 97.2553 23.72 97.4686 24.08C97.6953 24.44 97.9886 24.7267 98.3486 24.94C98.7219 25.1533 99.1353 25.26 99.5886 25.26ZM113.479 18.18H116.299V28H113.479V18.18ZM109.619 23.38C109.619 24.02 109.792 24.5333 110.139 24.92C110.499 25.3067 110.966 25.5 111.539 25.5C112.126 25.5 112.592 25.3067 112.939 24.92C113.299 24.5333 113.479 24.02 113.479 23.38H114.319C114.319 24.34 114.172 25.1867 113.879 25.92C113.599 26.6533 113.192 27.22 112.659 27.62C112.139 28.0067 111.526 28.2 110.819 28.2C109.992 28.2 109.272 28.0267 108.659 27.68C108.059 27.32 107.599 26.8067 107.279 26.14C106.959 25.46 106.799 24.66 106.799 23.74V18.18H109.619V23.38ZM118.384 18.18H121.204V19.34C121.484 18.9133 121.844 18.58 122.284 18.34C122.724 18.1 123.21 17.98 123.744 17.98C124.01 17.98 124.317 18.02 124.664 18.1V20.66C124.25 20.5667 123.917 20.52 123.664 20.52C123.184 20.52 122.757 20.62 122.384 20.82C122.024 21.0067 121.737 21.3 121.524 21.7C121.31 22.0867 121.204 22.5733 121.204 23.16V28H118.384V18.18ZM135.649 28H132.829V18.18H135.649V28ZM129.729 28.2C128.903 28.2 128.136 27.9733 127.429 27.52C126.723 27.0533 126.169 26.4267 125.769 25.64C125.369 24.8533 125.169 24 125.169 23.08C125.169 22.16 125.369 21.3067 125.769 20.52C126.169 19.7333 126.723 19.1133 127.429 18.66C128.136 18.2067 128.903 17.98 129.729 17.98C130.569 17.98 131.289 18.1867 131.889 18.6C132.489 19 132.943 19.5867 133.249 20.36C133.569 21.1333 133.729 22.04 133.729 23.08C133.729 24.1333 133.569 25.0467 133.249 25.82C132.943 26.58 132.489 27.1667 131.889 27.58C131.289 27.9933 130.569 28.2 129.729 28.2ZM130.369 25.5C130.836 25.5 131.256 25.3933 131.629 25.18C132.003 24.9667 132.296 24.68 132.509 24.32C132.723 23.9467 132.829 23.5333 132.829 23.08C132.829 22.6267 132.723 22.22 132.509 21.86C132.296 21.4867 132.003 21.1933 131.629 20.98C131.256 20.7667 130.836 20.66 130.369 20.66C129.916 20.66 129.503 20.7733 129.129 21C128.769 21.2133 128.476 21.5067 128.249 21.88C128.036 22.24 127.929 22.64 127.929 23.08C127.929 23.52 128.036 23.9267 128.249 24.3C128.476 24.6733 128.769 24.9667 129.129 25.18C129.503 25.3933 129.916 25.5 130.369 25.5ZM142.56 28.14C141.786 28.14 141.106 27.98 140.52 27.66C139.946 27.3267 139.493 26.8533 139.16 26.24C138.84 25.6133 138.68 24.8667 138.68 24V15.6H141.5V23.96C141.5 24.4667 141.653 24.8467 141.96 25.1C142.28 25.3533 142.693 25.48 143.2 25.48C143.493 25.48 143.733 25.4533 143.92 25.4V28C143.546 28.0933 143.093 28.14 142.56 28.14ZM136.86 18.18H143.92V20.86H136.86V18.18ZM149.281 14H152.841L162.121 28H158.601L149.281 14ZM158.341 14H161.821L152.501 28H149.041L158.341 14ZM165.673 14L168.773 19.08L171.873 14H175.333L170.233 22.08V28H167.253V22.08L162.053 14H165.673ZM186.376 14V16L179.636 25.16H186.436V28H175.616V26L182.356 16.84H175.996V14H186.376Z" fill="white"></path><g clip-path="url(#clip0_209_293)"><path d="M31.9551 36.8597L39.0117 41.0151V32.7043L31.9551 28.5488V36.8597Z" fill="#06DD7E"></path><path d="M47 28.5488L39.9434 32.7043V41.0151L47 36.8597V28.5488Z" fill="#98EF60"></path><path d="M31.0225 28.5488L23.9658 32.7043V41.0151L31.0225 36.8597V28.5488Z" fill="#05DDE2"></path><path d="M31.0225 0L23.9658 4.15544V12.4677L31.0225 8.31221V0Z" fill="#FFC373"></path><path d="M31.0225 18.4299L23.9658 14.2744V22.5853L31.0225 26.7421V18.4299Z" fill="#FF3740"></path><path d="M39.4112 14.2744L31.9551 18.4299V26.7421L39.4112 22.5853V14.2744Z" fill="#D647C2"></path><path d="M15.0449 36.8597L7.98828 41.0151V32.7043L15.0449 28.5488V36.8597Z" fill="#2D56C7"></path><path d="M0 28.5488L7.05666 32.7043V41.0151L0 36.8597V28.5488Z" fill="#7C47BF"></path><path d="M15.9775 28.5488L23.0342 32.7043V41.0151L15.9775 36.8597V28.5488Z" fill="#0389E8"></path><path d="M15.9775 0L23.0342 4.15544V12.4677L15.9775 8.31221V0Z" fill="#FFF32E"></path><path d="M15.9775 18.4299L23.0342 14.2744V22.5853L15.9775 26.7421V18.4299Z" fill="#FF6D55"></path><path d="M7.58984 14.2744L15.0459 18.4299V26.7421L7.58984 22.5853V14.2744Z" fill="#FF9642"></path></g><defs><clipPath id="clip0_209_293"><rect width="47" height="41.0152" fill="white"></rect></clipPath></defs></svg>